<?xml version="1.0" standalone="no"?>
<!DOCTYPE svg PUBLIC "-//W3C//DTD SVG 20010904//EN"
 "http://www.w3.org/TR/2001/REC-SVG-20010904/DTD/svg10.dtd">
<svg version="1.0" xmlns="http://www.w3.org/2000/svg"
 width="1280.000000pt" height="640.000000pt" viewBox="0 0 1280.000000 640.000000"
 preserveAspectRatio="xMidYMid meet">
<g transform="translate(0.000000,640.000000) scale(0.100000,-0.100000)"
fill="#000000" stroke="none">
<path d="M12290 3621 c0 -10 -14 -49 -31 -86 -31 -65 -31 -68 -20 -135 6 -38
11 -85 11 -106 0 -30 -2 -34 -14 -25 -8 7 -17 28 -21 48 -15 82 -94 187 -169
225 -46 24 -126 20 -157 -8 -25 -23 -69 -141 -69 -187 0 -83 105 -137 265
-137 77 0 95 -3 95 -15 0 -8 -13 -21 -28 -29 -42 -22 -110 -101 -138 -159 -27
-58 -29 -79 -13 -110 16 -30 28 -37 69 -37 19 0 44 -7 54 -15 33 -25 63 -18
110 28 52 50 71 106 62 185 -5 43 -4 52 9 52 9 0 25 -20 38 -47 30 -66 32
-210 3 -242 -19 -21 -19 -21 15 -21 l34 0 3 88 c3 92 -15 168 -58 237 -25 40
-25 45 -2 45 23 0 68 -43 91 -88 25 -48 55 -76 111 -101 75 -34 106 -29 166
30 39 39 53 47 61 37 14 -17 0 -203 -17 -223 -17 -20 -4 -33 14 -14 21 23 36
209 36 457 0 249 -12 372 -38 372 -12 0 -12 -2 -1 -17 11 -12 14 -65 14 -239
0 -122 -3 -226 -7 -230 -4 -4 -33 9 -63 30 -79 52 -146 76 -215 76 -32 0 -62
5 -65 11 -4 6 18 33 49 61 57 51 96 110 96 147 0 53 -44 91 -104 91 -33 0 -69
29 -63 51 5 17 -1 19 -54 19 -51 0 -59 -3 -59 -19z"/>
<path d="M1 3438 c1 -163 3 -181 10 -118 16 138 21 144 69 75 17 -25 48 -56
68 -70 45 -28 241 -90 252 -78 3 4 4 51 0 103 -8 106 -28 165 -79 222 -17 20
-31 41 -31 47 0 7 -28 11 -80 11 -79 0 -80 0 -69 -21 7 -14 8 -24 1 -31 -13
-13 -101 -30 -113 -22 -14 8 -10 41 7 58 14 15 13 16 -10 16 l-26 0 1 -192z"/>
<path d="M5107 3594 c3 -9 -5 -26 -20 -42 -59 -62 -51 -168 23 -291 54 -90 38
-103 -38 -29 -68 67 -98 83 -181 98 -75 13 -131 6 -160 -21 -24 -22 -26 -38
-11 -89 7 -24 7 -45 -1 -67 -17 -51 3 -99 47 -113 56 -19 125 -3 246 56 61 30
116 53 121 51 6 -2 -14 -22 -45 -45 -86 -63 -118 -152 -87 -241 14 -41 42 -52
102 -40 31 5 55 5 71 -3 36 -16 93 -2 113 29 9 14 19 44 23 67 11 86 56 23 75
-106 7 -47 8 -48 42 -48 19 0 33 3 31 8 -2 4 -12 25 -22 47 -59 133 -80 171
-126 219 -43 46 -61 76 -45 76 3 0 33 -15 67 -32 53 -29 72 -33 136 -33 70 0
75 2 102 31 25 28 27 38 26 99 -1 62 -3 70 -29 89 -37 27 -154 29 -207 3 -106
-52 -141 -87 -132 -133 5 -27 2 -28 -33 -12 -38 17 -31 45 19 76 126 80 178
211 122 306 -30 52 -59 68 -116 64 -38 -3 -46 0 -55 20 -12 27 -69 33 -58 6z
m103 -328 c0 -8 -5 -27 -10 -42 -15 -37 -34 -17 -25 25 7 31 35 44 35 17z
m-40 -247 c0 -5 -4 -9 -10 -9 -5 0 -10 7 -10 16 0 8 5 12 10 9 6 -3 10 -10 10
-16z m-8 -54 c0 -5 -5 -11 -11 -13 -6 -2 -11 4 -11 13 0 9 5 15 11 13 6 -2 11
-8 11 -13z"/>
<path d="M7735 3591 c4 -13 -5 -28 -31 -52 -83 -75 -84 -77 -84 -116 0 -45 24
-85 48 -81 12 2 16 -3 14 -15 -5 -31 73 -79 172 -107 58 -16 87 -40 49 -40
-140 -2 -275 -37 -290 -75 -11 -30 7 -63 44 -80 21 -10 47 -25 58 -35 56 -49
94 -34 180 69 37 45 74 81 82 81 12 0 14 -21 13 -137 -3 -239 -4 -233 26 -233
16 0 23 4 18 11 -4 7 -8 48 -9 93 -2 44 -6 111 -10 149 -5 48 -4 67 4 67 6 0
14 -8 18 -17 44 -134 132 -243 193 -243 42 0 66 15 74 45 4 15 18 30 39 38 71
30 72 60 2 153 -49 67 -126 114 -188 114 -38 0 -66 15 -52 28 6 5 33 17 60 27
104 37 177 95 191 151 9 37 -4 74 -30 84 -13 4 -38 27 -55 49 -29 36 -37 41
-75 41 -36 0 -48 -6 -83 -42 -47 -48 -73 -101 -73 -150 0 -55 -12 -109 -23
-105 -6 2 -17 33 -23 70 -17 92 -46 152 -99 203 -25 25 -45 51 -45 59 0 12
-14 15 -61 15 -55 0 -60 -2 -54 -19z m115 -227 c0 -8 -4 -12 -10 -9 -5 3 -10
10 -10 16 0 5 5 9 10 9 6 0 10 -7 10 -16z m279 -73 c-40 -51 -53 -39 -18 18
14 24 23 31 31 23 8 -8 4 -19 -13 -41z m-199 3 c42 -38 50 -54 26 -54 -20 0
-76 55 -76 74 0 23 5 21 50 -20z m90 -114 c0 -11 -7 -20 -15 -20 -15 0 -21 21
-8 33 12 13 23 7 23 -13z m110 -45 c18 -9 30 -24 30 -35 0 -13 7 -20 19 -20
12 0 20 -9 23 -25 5 -22 3 -25 -16 -19 -45 14 -64 23 -71 33 -3 6 -17 11 -30
11 -18 0 -26 7 -31 26 -11 43 24 56 76 29z"/>
<path d="M8837 3575 c-15 -18 -34 -49 -42 -68 -22 -53 -30 -159 -15 -212 7
-25 10 -48 7 -52 -4 -3 -29 4 -58 15 -28 12 -76 27 -108 33 -49 10 -61 10 -93
-5 -48 -23 -64 -61 -49 -120 6 -25 11 -56 11 -70 0 -73 97 -88 205 -31 37 19
71 33 76 32 5 -1 26 19 46 45 21 26 85 104 143 173 113 136 126 158 116 198
-5 20 -16 29 -49 38 -72 20 -97 31 -97 45 0 9 -11 14 -32 13 -25 0 -40 -9 -61
-34z"/>
<path d="M4110 3587 c0 -8 -11 -24 -25 -37 -54 -51 -53 -139 2 -262 14 -32 23
-61 19 -65 -3 -4 -36 8 -73 27 -143 73 -343 41 -343 -55 0 -12 7 -29 16 -36
12 -10 15 -24 10 -61 -8 -59 4 -83 49 -98 47 -15 120 6 199 59 33 22 63 38 68
35 4 -3 -6 -33 -24 -67 -40 -79 -44 -166 -10 -214 12 -17 22 -36 22 -42 0 -7
21 -11 53 -11 41 0 55 4 65 20 7 11 19 20 27 20 8 0 24 -9 35 -20 21 -21 60
-27 60 -9 0 6 9 22 20 36 13 17 20 41 20 70 0 45 -12 75 -69 176 -29 50 -31
57 -14 57 27 0 154 -127 191 -192 18 -31 38 -79 45 -107 6 -28 17 -51 24 -51
19 0 -23 112 -67 177 -22 32 -53 75 -71 95 -17 20 -28 41 -25 47 4 6 36 11 72
11 111 0 172 43 161 112 -31 188 -64 206 -193 106 -36 -27 -69 -47 -72 -43 -4
3 11 39 33 78 30 56 39 83 39 122 1 69 -29 135 -61 135 -12 0 -23 -6 -23 -13
0 -18 -42 -40 -66 -35 -11 2 -23 13 -29 26 -11 25 -65 32 -65 9z m77 -291 c-4
-9 -11 -16 -17 -16 -11 0 -14 33 -3 44 11 10 26 -11 20 -28z"/>
<path d="M10350 3560 c-23 -12 -46 -17 -66 -14 -48 9 -64 -15 -64 -91 0 -70
21 -143 53 -186 11 -16 44 -41 74 -56 70 -37 69 -53 -5 -53 -37 0 -70 -7 -92
-19 -95 -50 -118 -191 -35 -214 17 -5 51 -20 78 -33 61 -31 90 -30 129 5 26
23 33 38 38 80 3 28 10 52 15 53 6 1 20 -19 33 -43 20 -38 23 -55 19 -126 -3
-74 -1 -83 14 -83 23 0 35 90 20 145 -15 54 -5 60 39 25 48 -38 91 -48 113
-25 10 9 17 23 17 31 0 8 18 32 40 54 26 26 40 48 40 65 0 36 -47 81 -98 95
-23 6 -42 15 -42 19 0 5 24 20 54 35 66 32 146 115 146 150 0 16 -15 40 -37
64 -21 22 -46 51 -56 66 -31 46 -91 31 -158 -41 -44 -45 -60 -76 -99 -185 -21
-61 -26 -86 -18 -96 13 -15 2 -29 -27 -34 -19 -3 -20 2 -17 62 1 36 7 101 14
146 13 95 5 162 -23 198 -24 31 -51 32 -99 6z m335 -210 c-3 -5 -10 -10 -16
-10 -5 0 -9 5 -9 10 0 6 7 10 16 10 8 0 12 -4 9 -10z m-325 -20 c0 -5 -2 -10
-4 -10 -3 0 -8 5 -11 10 -3 6 -1 10 4 10 6 0 11 -4 11 -10z m270 -39 c0 -15
-53 -52 -61 -44 -5 5 -6 18 -3 31 5 16 14 22 35 22 16 0 29 -4 29 -9z m-253
-178 c2 -6 -10 -18 -26 -26 -32 -16 -38 -9 -20 24 11 21 40 22 46 2z"/>
<path d="M1304 3560 c-12 -5 -24 -15 -27 -24 -5 -11 -20 -14 -62 -13 -46 2
-59 -2 -72 -18 -21 -29 -11 -101 26 -173 33 -65 58 -89 117 -113 83 -34 102
-38 108 -22 8 21 9 20 -24 32 -16 5 -30 14 -30 20 0 15 44 9 56 -8 10 -13 14
-8 24 24 6 22 14 74 17 116 4 63 2 82 -15 115 -11 22 -26 45 -34 51 -20 16
-61 22 -84 13z"/>
<path d="M6696 3507 c-60 -59 -66 -69 -66 -106 0 -45 21 -104 48 -135 9 -10
43 -36 75 -57 45 -29 72 -39 121 -44 121 -13 114 -38 -14 -48 -122 -10 -183
-45 -217 -126 -14 -32 -13 -36 18 -80 72 -103 99 -117 158 -86 27 13 66 66
134 180 23 39 30 45 42 35 13 -11 15 -2 15 63 0 42 -4 88 -10 102 -5 14 -19
77 -30 138 -12 65 -28 122 -38 136 -33 45 -89 82 -130 88 -38 5 -42 3 -106
-60z m232 -288 l-3 -21 -27 22 c-16 12 -28 26 -28 33 0 6 -9 21 -21 33 -12 13
-18 28 -14 34 11 18 97 -75 93 -101z"/>
<path d="M611 3534 c-95 -48 -171 -183 -171 -305 0 -28 -5 -70 -11 -94 -8 -31
-8 -63 0 -115 11 -68 48 -161 71 -175 5 -3 10 -15 10 -26 0 -16 7 -19 42 -19
l42 0 -41 30 c-27 20 -48 48 -66 87 -33 75 -54 180 -39 195 8 8 14 3 23 -18
46 -116 97 -186 156 -211 18 -7 34 -13 37 -13 3 0 25 18 50 39 25 22 55 42 66
46 29 9 53 60 45 97 -15 68 -84 117 -198 142 -40 9 -30 25 30 45 68 23 161 85
175 117 9 19 9 35 1 62 -23 75 -41 116 -59 129 -30 22 -104 16 -163 -13z m-1
-480 c0 -14 -3 -14 -15 -4 -8 7 -15 14 -15 16 0 2 7 4 15 4 8 0 15 -7 15 -16z"/>
<path d="M9450 3538 c-11 -12 -20 -25 -20 -28 0 -3 -18 -16 -40 -29 -121 -68
-61 -176 143 -260 111 -46 120 -43 130 44 16 145 -15 224 -105 269 -63 32 -81
32 -108 4z"/>
<path d="M2166 3516 c-18 -18 -49 -39 -69 -45 -45 -15 -77 -54 -77 -93 0 -53
30 -87 106 -124 39 -19 76 -34 81 -34 6 0 41 -9 77 -20 43 -14 66 -26 66 -36
0 -10 -10 -14 -32 -13 -69 4 -158 -32 -203 -81 -16 -18 -6 -15 57 16 43 21 80
35 84 31 4 -3 -8 -23 -26 -44 -38 -43 -69 -107 -70 -143 0 -42 27 -72 64 -69
18 2 46 -3 63 -10 45 -18 96 -11 108 17 13 29 26 28 56 -4 20 -21 30 -25 59
-19 49 9 97 9 149 0 53 -10 71 7 71 65 0 90 -45 156 -135 201 -36 18 -68 35
-70 39 -5 8 19 19 102 45 74 23 97 45 96 87 -1 50 -27 94 -62 106 -17 6 -42
28 -57 51 -68 104 -162 35 -184 -135 -21 -162 -35 -164 -42 -5 -6 128 -30 191
-87 228 -49 33 -87 30 -125 -11z m291 -327 c14 -14 6 -39 -13 -39 -8 0 -14 10
-14 25 0 27 9 32 27 14z"/>
<path d="M3404 3488 c-56 -50 -77 -106 -75 -203 1 -84 -12 -135 -35 -135 -8 0
-14 3 -14 8 0 4 -6 46 -14 93 -28 175 -92 259 -195 259 -35 0 -43 -4 -56 -30
-9 -17 -27 -35 -40 -40 -13 -5 -32 -21 -41 -36 -15 -23 -16 -32 -5 -73 23 -86
131 -163 256 -180 74 -11 81 -14 70 -32 -6 -9 -39 -10 -126 -6 -132 8 -157 2
-206 -46 -40 -37 -42 -66 -8 -115 15 -22 25 -51 25 -73 0 -29 5 -38 25 -47 40
-18 67 -14 116 16 61 39 117 104 145 169 32 71 48 62 42 -26 -6 -84 -40 -163
-87 -201 l-36 -30 48 0 c43 0 47 2 47 24 0 13 7 43 16 67 9 24 22 67 28 94 7
28 18 50 25 50 7 0 21 -25 30 -55 36 -113 67 -147 124 -136 17 4 45 22 63 41
19 21 41 35 55 35 74 1 89 89 28 163 -36 44 -75 66 -142 82 -26 6 -48 15 -49
20 0 5 42 31 93 57 104 52 133 79 149 138 19 71 -10 130 -63 130 -17 0 -45 11
-63 25 -45 35 -85 32 -130 -7z"/>
<path d="M6118 3503 c-24 -15 -32 -15 -62 -5 -75 27 -132 -45 -124 -157 3 -50
10 -67 41 -107 43 -55 46 -69 15 -59 -81 24 -197 8 -260 -36 -39 -28 -53 -78
-33 -124 8 -21 15 -48 15 -60 0 -31 53 -75 91 -75 55 0 108 30 168 98 33 37
63 64 66 60 4 -4 -6 -40 -23 -80 -16 -40 -32 -101 -36 -135 -6 -62 -5 -63 20
-63 21 0 23 3 14 19 -20 38 -8 161 15 161 8 0 16 -13 20 -29 3 -16 22 -47 41
-69 41 -48 88 -63 125 -39 13 8 43 18 65 22 46 7 76 30 100 77 23 45 12 90
-37 149 -44 52 -43 68 4 69 47 0 137 69 137 104 0 12 -9 35 -20 51 -12 18 -20
47 -20 72 0 34 -6 46 -31 67 -47 40 -95 36 -141 -11 -43 -44 -93 -141 -103
-198 -10 -52 -22 -75 -40 -75 -8 0 -15 1 -15 3 0 14 38 125 66 195 41 101 43
134 9 167 -28 29 -32 30 -67 8z m-45 -277 c10 -31 5 -41 -18 -33 -9 4 -15 19
-15 38 0 37 20 35 33 -5z"/>
<path d="M11134 3495 c-9 -14 -32 -32 -51 -40 -47 -20 -68 -70 -52 -128 13
-51 38 -79 90 -102 21 -10 39 -23 39 -30 0 -6 -24 -17 -53 -24 -89 -20 -173
-65 -201 -108 -41 -62 -43 -92 -7 -132 17 -19 34 -44 37 -55 10 -33 45 -66 71
-66 36 0 75 24 122 75 56 61 72 103 79 205 5 92 13 110 47 110 28 0 38 -22 20
-47 -33 -48 -49 -197 -26 -256 14 -37 59 -77 85 -77 11 0 38 6 61 14 22 8 57
17 77 21 45 7 78 47 85 105 4 30 0 49 -20 83 -14 24 -33 49 -41 57 -9 7 -16
19 -16 26 0 28 29 13 79 -42 57 -62 80 -120 88 -226 l6 -68 39 0 c34 0 39 3
33 18 -4 9 -15 42 -25 72 -36 116 -97 208 -166 250 -40 25 -37 37 14 46 44 8
103 36 121 58 11 13 9 27 -8 79 -26 78 -55 108 -113 114 -80 9 -165 -47 -220
-144 -16 -29 -33 -53 -38 -53 -4 0 -9 46 -12 103 -6 139 -33 187 -102 187 -16
0 -32 -9 -42 -25z m-36 -443 c2 -7 -2 -10 -12 -6 -9 3 -16 11 -16 16 0 13 23
5 28 -10z"/>
<path d="M7219 3471 c-63 -41 -104 -87 -136 -156 -25 -54 -28 -70 -27 -170 0
-106 1 -113 36 -185 45 -95 76 -125 129 -125 33 0 44 6 65 33 14 17 45 40 70
51 54 24 63 43 38 88 -24 46 -74 79 -157 104 -39 12 -66 26 -64 33 2 6 30 18
63 27 32 9 71 21 85 27 41 16 100 73 115 109 20 46 7 74 -81 176 -24 27 -83
22 -136 -12z m-24 -161 c4 -6 -21 -37 -54 -69 -34 -33 -64 -55 -67 -50 -8 13
31 73 67 104 33 27 44 30 54 15z m-7 -318 c2 -7 -3 -12 -12 -12 -9 0 -16 7
-16 16 0 17 22 14 28 -4z"/>
<path d="M9876 3475 c-56 -20 -112 -80 -152 -161 -40 -84 -45 -125 -13 -117
18 5 20 3 15 -15 -6 -18 -2 -21 37 -27 67 -10 179 27 235 79 49 44 67 111 36
137 -8 7 -24 29 -34 49 -32 62 -64 76 -124 55z m-26 -174 c0 -5 -7 -17 -16
-26 -22 -21 -44 -4 -24 20 14 16 40 20 40 6z"/>
<path d="M1660 3441 c-50 -16 -108 -51 -134 -82 -39 -46 -81 -132 -67 -137 21
-7 12 -32 -11 -29 -17 1 -24 -4 -26 -19 -2 -17 -12 -23 -49 -28 -26 -3 -75 -3
-109 0 -39 4 -75 2 -99 -6 -47 -16 -111 -72 -136 -121 -17 -34 -17 -39 -3 -53
8 -9 19 -16 24 -16 20 0 40 -32 34 -55 -7 -29 27 -55 74 -55 52 0 128 46 160
97 15 23 30 43 35 43 14 0 7 -51 -18 -116 -14 -36 -25 -68 -25 -70 0 -2 13 -4
28 -4 28 0 29 2 42 80 7 44 18 80 24 80 6 -1 21 -23 34 -50 36 -78 118 -114
160 -72 9 9 32 28 50 40 25 18 32 31 32 55 0 50 -18 103 -46 136 -14 17 -23
35 -20 40 3 5 32 12 63 16 98 12 203 84 203 138 0 30 -43 132 -65 157 -30 33
-101 47 -155 31z m-90 -231 c0 -12 -53 -40 -75 -40 -27 0 -16 19 23 39 36 19
52 19 52 1z m-170 -106 c0 -8 -5 -12 -10 -9 -6 4 -8 11 -5 16 9 14 15 11 15
-7z"/>
<path d="M9029 3321 c-30 -21 -84 -73 -122 -116 -102 -116 -130 -184 -103
-248 18 -44 41 -57 103 -57 36 0 53 5 65 19 9 11 33 23 53 27 38 7 75 44 75
76 0 27 -23 69 -54 97 -48 45 -27 54 49 20 51 -22 94 -20 147 7 26 13 28 19
28 72 0 69 -17 97 -74 123 -65 30 -105 25 -167 -20z"/>
<path d="M237 3179 c-56 -13 -89 -33 -130 -78 -37 -41 -52 -75 -45 -107 3 -17
133 -124 150 -124 40 0 128 86 157 154 17 37 41 132 41 156 0 12 -121 11 -173
-1z"/>
<path d="M9435 3160 c-95 -14 -175 -72 -175 -128 0 -14 11 -37 24 -51 14 -15
31 -44 38 -66 11 -35 17 -40 47 -43 55 -5 151 48 212 119 29 32 58 59 66 59
17 0 8 67 -12 89 -25 26 -107 35 -200 21z m119 -69 c8 -12 -13 -28 -47 -36
-33 -9 -36 8 -5 29 25 18 44 20 52 7z m-144 -80 c0 -6 -4 -13 -10 -16 -5 -3
-10 1 -10 9 0 9 5 16 10 16 6 0 10 -4 10 -9z"/>
<path d="M9690 3105 c0 -54 33 -173 68 -247 l37 -77 63 -1 c62 0 62 0 56 26
-5 21 1 32 40 68 50 47 55 68 30 122 -35 72 -110 113 -241 129 -52 7 -53 7
-53 -20z m100 -55 c0 -11 -4 -20 -10 -20 -5 0 -19 9 -30 20 l-20 20 30 0 c23
0 30 -4 30 -20z"/>
<path d="M9 2965 c-2 -66 -1 -126 4 -132 12 -16 31 -17 21 -2 -3 6 -10 66 -13
133 l-7 121 -5 -120z"/>
<path d="M6990 2950 c0 -33 6 -90 12 -125 10 -51 16 -65 30 -65 22 0 21 -1 4
41 -7 19 -19 73 -26 122 -7 48 -14 87 -16 87 -2 0 -4 -27 -4 -60z"/>
<path d="M8744 2974 c-7 -27 -8 -63 -2 -105 4 -35 6 -70 3 -77 -6 -16 19 -26
41 -18 15 6 15 8 -1 26 -14 16 -20 44 -24 118 -6 93 -6 95 -17 56z"/>
<path d="M9646 2941 c-4 -29 -16 -77 -27 -105 -10 -28 -19 -52 -19 -53 0 -2
16 -3 35 -3 l35 0 -1 83 c-1 45 -4 93 -8 107 -6 21 -9 16 -15 -29z"/>
<path d="M2005 2966 c-65 -87 -103 -172 -85 -190 16 -16 29 4 65 105 34 93 38
110 20 85z"/>
</g>
</svg>
